<?xml version="1.0" encoding="UTF-8" standalone="no"?>
<!DOCTYPE svg PUBLIC "-//W3C//DTD SVG 1.1//EN" "http://www.w3.org/Graphics/SVG/1.1/DTD/svg11.dtd">
<svg xmlns="http://www.w3.org/2000/svg" version="1.1" viewBox="0.00 0.00 497.00 230.00">
<g stroke-width="2.00" fill="none" stroke-linecap="butt">
<path stroke="#80d1f5" vector-effect="non-scaling-stroke" d="
  M 216.25 39.46
  Q 237.82 39.20 259.23 40.98"
/>
<path stroke="#8dcce2" vector-effect="non-scaling-stroke" d="
  M 259.23 40.98
  Q 294.46 44.03 328.47 53.33
  C 349.75 59.15 371.14 67.76 388.96 81.28
  C 406.23 94.40 416.34 115.56 400.82 134.84
  C 382.04 158.14 350.09 169.06 322.71 176.99
  A 0.21 0.20 -55.6 0 0 322.78 177.39
  C 367.64 172.62 413.79 164.01 453.33 141.11
  C 475.46 128.29 500.74 104.30 488.69 75.53
  C 472.39 36.58 405.19 16.92 368.00 10.00
  Q 282.14 -5.97 194.77 8.85
  C 152.34 16.04 100.16 31.22 72.39 65.15
  A 0.33 0.33 0.0 0 0 72.78 65.66
  C 116.58 46.10 168.67 39.15 216.25 39.46"
/>
<path stroke="#0e9ed7" vector-effect="non-scaling-stroke" d="
  M 259.23 40.98
  L 259.31 40.41
  Q 259.39 39.86 259.95 39.89
  C 268.29 40.29 276.37 40.53 284.63 42.08
  Q 301.30 45.21 317.91 48.67
  Q 322.19 49.57 327.15 50.96
  C 334.86 53.12 343.26 55.10 350.00 57.60
  C 373.61 66.35 400.84 80.13 409.47 104.94
  C 413.69 117.07 407.79 131.48 399.60 140.65
  C 397.32 143.20 394.24 147.58 390.90 148.58
  Q 389.08 149.13 387.94 150.07
  Q 377.53 158.63 365.91 163.14
  Q 359.65 165.56 355.60 167.95
  Q 355.16 168.20 354.97 168.66
  C 353.67 171.79 359.19 171.06 360.55 170.76
  C 363.89 170.02 389.30 164.68 390.12 163.61
  Q 390.42 163.21 390.92 163.16
  C 394.63 162.80 398.27 161.11 401.37 160.38
  Q 408.63 158.69 417.54 155.27
  C 432.43 149.55 447.56 143.63 459.69 134.86
  Q 472.83 125.35 482.38 111.95
  C 491.21 99.56 491.58 88.90 485.98 74.97
  Q 484.47 71.22 482.01 68.20
  Q 473.87 58.23 464.04 49.95
  C 459.36 46.01 453.36 42.97 447.93 39.68
  Q 441.20 35.61 435.27 33.01
  C 424.52 28.29 413.81 23.43 402.48 20.81
  C 395.43 19.18 388.59 16.52 381.55 15.07
  C 377.34 14.20 372.91 13.65 368.64 12.63
  Q 365.02 11.76 363.91 11.60
  C 350.47 9.73 335.66 7.16 323.57 5.85
  C 281.02 1.26 237.59 2.53 195.61 11.35
  C 189.53 12.62 182.91 12.55 177.24 14.99
  Q 175.05 15.93 171.49 15.96
  Q 169.12 15.98 161.88 18.16
  Q 161.43 18.30 161.20 18.71
  C 160.23 20.42 157.37 20.25 155.73 20.05
  Q 155.24 19.99 154.77 20.15
  C 151.81 21.16 148.92 21.46 146.07 22.78
  Q 141.37 24.97 136.25 25.97
  Q 132.76 26.65 130.34 29.21
  Q 130.00 29.57 129.52 29.68
  Q 123.35 31.05 117.74 33.92
  C 109.65 38.05 101.56 42.01 94.23 47.03
  Q 92.95 47.90 92.02 49.47
  A 1.20 1.17 -82.2 0 1 91.34 50.00
  Q 88.33 50.86 86.64 53.38
  Q 86.35 53.82 85.89 54.06
  C 85.07 54.48 82.30 56.00 83.23 57.28
  A 2.26 1.89 60.5 0 0 85.60 58.17
  L 92.42 55.66
  A 2.39 2.35 -51.6 0 1 93.55 55.52
  Q 94.90 55.68 95.70 54.63
  Q 95.94 54.30 96.35 54.24
  Q 98.62 53.90 103.54 52.46
  C 108.33 51.06 112.68 49.55 117.84 48.60
  Q 124.57 47.38 131.01 45.05
  Q 134.67 43.73 143.75 42.78
  Q 151.34 41.99 156.59 41.28
  Q 180.79 38.00 205.23 38.23
  C 208.96 38.27 212.58 38.88 216.25 39.46"
/>
<path stroke="#80d1f5" vector-effect="non-scaling-stroke" d="
  M 200.32 221.74
  Q 220.35 222.48 240.48 221.54"
/>
<path stroke="#8dcce2" vector-effect="non-scaling-stroke" d="
  M 240.48 221.54
  Q 287.53 219.75 332.96 207.86
  C 358.37 201.20 383.61 191.54 404.29 176.42"
/>
<path stroke="#80d1f5" vector-effect="non-scaling-stroke" d="
  M 404.29 176.42
  Q 414.75 168.90 422.51 158.76
  A 0.29 0.29 0.0 0 0 422.16 158.31
  C 392.97 171.33 360.93 178.30 329.26 181.81
  Q 287.55 186.44 245.78 183.62"
/>
<path stroke="#8dcce2" vector-effect="non-scaling-stroke" d="
  M 245.78 183.62
  C 210.34 181.34 174.89 175.15 141.65 162.40
  C 118.67 153.59 77.07 130.62 88.47 99.28
  C 96.57 77.02 128.84 61.29 149.52 54.30
  Q 165.24 48.99 170.23 47.46
  Q 170.99 47.22 170.19 47.22
  Q 168.73 47.22 165.75 47.52
  Q 138.26 50.29 116.95 55.21
  Q 86.86 62.15 62.16 72.46
  C 32.29 84.93 -13.64 115.59 9.38 154.51
  C 25.24 181.34 65.62 197.90 94.50 206.00
  Q 146.26 220.53 200.32 221.74"
/>
<path stroke="#0e9ed7" vector-effect="non-scaling-stroke" d="
  M 245.78 183.62
  C 244.61 184.33 243.66 184.86 242.23 184.87
  C 229.65 184.96 220.69 183.34 204.97 180.96
  C 189.24 178.57 174.37 174.69 159.07 170.49
  C 140.36 165.34 124.47 158.07 109.23 147.75
  Q 100.48 141.82 95.69 136.15
  C 90.68 130.21 84.97 121.55 84.79 113.50
  C 84.66 107.30 84.62 102.75 86.99 97.06
  Q 92.88 82.91 105.57 74.35
  C 112.53 69.67 118.10 65.28 125.04 62.16
  Q 130.60 59.66 135.73 57.33
  A 1.82 1.82 0.0 0 0 134.54 53.90
  Q 133.43 54.18 132.30 53.90
  Q 131.81 53.77 131.34 53.97
  Q 129.54 54.75 127.52 54.74
  Q 127.08 54.74 126.72 54.99
  C 124.55 56.43 120.22 56.35 117.69 56.54
  A 1.85 1.84 -64.3 0 0 116.81 56.85
  C 113.59 59.07 110.48 58.79 107.14 60.15
  Q 103.71 61.55 100.02 61.64
  Q 97.07 61.71 95.19 62.30
  Q 86.79 64.94 78.34 67.43
  Q 77.86 67.57 77.61 68.02
  C 77.26 68.65 74.10 69.52 73.12 70.45
  Q 72.76 70.79 72.27 70.94
  Q 65.12 73.05 63.42 74.17
  C 57.70 77.94 50.18 80.76 45.58 83.38
  C 25.41 94.87 -3.67 118.07 8.19 145.44
  C 20.45 173.70 50.83 188.46 78.24 198.36
  C 80.58 199.20 82.97 199.37 85.40 200.47
  C 96.09 205.30 110.57 208.54 121.10 210.59
  C 124.36 211.22 128.00 212.74 132.31 212.15
  A 1.50 1.45 55.9 0 1 133.27 212.35
  Q 135.25 213.53 137.50 213.95
  C 147.50 215.82 160.49 216.69 167.59 217.56
  C 176.01 218.58 184.37 219.70 192.84 220.17
  Q 196.75 220.38 200.32 221.74"
/>
<path stroke="#0e9ed7" vector-effect="non-scaling-stroke" d="
  M 404.29 176.42
  L 402.75 175.54
  Q 402.25 175.25 401.79 175.60
  C 395.61 180.25 389.07 184.54 381.88 187.45
  Q 379.55 188.39 376.79 189.77
  C 362.88 196.77 348.46 201.99 332.76 205.91
  Q 308.20 212.03 283.20 216.05
  C 281.59 216.31 279.95 216.26 278.33 216.25
  C 274.64 216.22 270.63 217.85 267.57 218.11
  Q 255.03 219.17 242.50 220.24
  Q 241.73 220.30 240.48 221.54"
/>
<path stroke="#80d1f5" vector-effect="non-scaling-stroke" d="
  M 161.11 81.04
  C 152.11 78.14 143.48 76.12 134.25 78.99
  C 116.43 84.52 116.23 102.90 132.77 110.77
  Q 151.61 119.73 157.19 122.78
  Q 161.41 125.09 162.66 129.87
  C 164.26 136.02 158.42 140.66 153.00 141.80
  C 144.05 143.69 129.72 140.84 126.02 131.51
  Q 124.54 127.79 123.53 124.42
  A 1.16 1.16 0.0 0 0 121.31 124.41
  Q 120.93 125.64 121.01 127.50
  Q 121.36 136.69 121.23 145.90
  Q 121.22 146.50 121.81 146.50
  L 122.98 146.50
  Q 123.56 146.50 123.68 145.93
  Q 124.51 141.78 128.43 142.81
  C 138.52 145.47 146.24 147.55 155.97 145.67
  C 162.99 144.31 170.22 139.81 172.79 133.05
  C 182.43 107.72 121.99 105.18 130.72 88.73
  C 135.16 80.37 146.36 80.36 154.03 83.72
  Q 164.04 88.12 165.83 98.98
  Q 166.12 100.70 167.70 100.52
  A 0.62 0.61 -3.1 0 0 168.25 99.91
  L 168.25 78.10
  A 0.96 0.96 0.0 0 0 166.49 77.58
  C 165.19 79.56 164.26 82.05 161.11 81.04"
/>
<path stroke="#80d1f5" vector-effect="non-scaling-stroke" d="
  M 302.8614 111.1861
  A 39.34 34.61 -1.2 0 0 262.8052 77.4076
  A 39.34 34.61 -1.2 0 0 224.1986 112.8339
  A 39.34 34.61 -1.2 0 0 264.2548 146.6124
  A 39.34 34.61 -1.2 0 0 302.8614 111.1861"
/>
<path stroke="#80d1f5" vector-effect="non-scaling-stroke" d="
  M 216.62 143.03
  C 211.44 142.97 206.42 142.71 205.96 136.28
  Q 205.14 124.86 206.08 87.76
  C 206.25 81.34 211.76 80.77 216.70 80.71
  Q 217.25 80.71 217.25 80.15
  L 217.25 79.74
  A 0.76 0.75 0.0 0 0 216.49 78.99
  L 184.25 79.02
  A 1.56 1.41 -78.1 0 0 182.90 80.00
  C 182.82 80.21 183.70 80.76 184.14 80.76
  C 187.42 80.73 194.23 81.84 194.24 86.25
  Q 194.28 110.52 194.23 134.80
  C 194.22 138.85 193.72 141.66 189.52 142.58
  C 188.53 142.80 182.42 142.90 183.05 144.36
  A 1.07 1.07 0.0 0 0 184.03 145.00
  L 216.69 145.00
  Q 217.38 145.00 217.34 144.31
  L 217.30 143.67
  Q 217.26 143.04 216.62 143.03"
/>
<path stroke="#80d1f5" vector-effect="non-scaling-stroke" d="
  M 311.77 79.84
  L 310.99 94.03
  A 0.86 0.85 14.7 0 0 311.48 94.86
  Q 312.23 95.21 312.93 94.45
  Q 313.22 94.13 313.29 93.71
  C 315.36 81.46 328.27 82.86 338.04 83.37
  A 0.54 0.54 0.0 0 1 338.56 83.91
  Q 338.49 110.30 338.26 136.68
  C 338.19 144.71 326.62 142.23 327.20 144.36
  A 0.86 0.85 82.7 0 0 328.01 144.99
  L 360.50 145.01
  Q 360.56 145.01 361.06 144.57
  Q 361.48 144.20 361.12 143.47
  A 0.86 0.86 0.0 0 0 360.25 143.00
  C 355.53 143.54 350.03 142.10 350.02 136.24
  Q 349.95 110.10 350.02 83.90
  Q 350.03 83.38 350.55 83.35
  C 359.96 82.82 373.31 81.63 375.79 93.64
  Q 376.16 95.46 377.62 94.46
  A 1.02 1.01 -19.6 0 0 378.05 93.56
  L 377.15 79.79
  A 0.84 0.84 0.0 0 0 376.31 79.00
  L 312.66 79.00
  A 0.89 0.89 0.0 0 0 311.77 79.84"
/>
<path stroke="#80d1f5" vector-effect="non-scaling-stroke" d="
  M 248.69 138.06
  C 258.46 145.11 272.24 144.26 280.85 136.22
  C 292.29 125.51 291.72 98.12 280.75 87.68
  C 267.40 74.98 244.25 81.31 239.65 99.42
  C 236.54 111.66 237.53 130.01 248.69 138.06"
/>
</g>
<path fill="#ffffff" d="
  M 0.00 0.00
  L 497.00 0.00
  L 497.00 230.00
  L 0.00 230.00
  L 0.00 0.00
  Z
  M 216.25 39.46
  Q 237.82 39.20 259.23 40.98
  Q 294.46 44.03 328.47 53.33
  C 349.75 59.15 371.14 67.76 388.96 81.28
  C 406.23 94.40 416.34 115.56 400.82 134.84
  C 382.04 158.14 350.09 169.06 322.71 176.99
  A 0.21 0.20 -55.6 0 0 322.78 177.39
  C 367.64 172.62 413.79 164.01 453.33 141.11
  C 475.46 128.29 500.74 104.30 488.69 75.53
  C 472.39 36.58 405.19 16.92 368.00 10.00
  Q 282.14 -5.97 194.77 8.85
  C 152.34 16.04 100.16 31.22 72.39 65.15
  A 0.33 0.33 0.0 0 0 72.78 65.66
  C 116.58 46.10 168.67 39.15 216.25 39.46
  Z
  M 200.32 221.74
  Q 220.35 222.48 240.48 221.54
  Q 287.53 219.75 332.96 207.86
  C 358.37 201.20 383.61 191.54 404.29 176.42
  Q 414.75 168.90 422.51 158.76
  A 0.29 0.29 0.0 0 0 422.16 158.31
  C 392.97 171.33 360.93 178.30 329.26 181.81
  Q 287.55 186.44 245.78 183.62
  C 210.34 181.34 174.89 175.15 141.65 162.40
  C 118.67 153.59 77.07 130.62 88.47 99.28
  C 96.57 77.02 128.84 61.29 149.52 54.30
  Q 165.24 48.99 170.23 47.46
  Q 170.99 47.22 170.19 47.22
  Q 168.73 47.22 165.75 47.52
  Q 138.26 50.29 116.95 55.21
  Q 86.86 62.15 62.16 72.46
  C 32.29 84.93 -13.64 115.59 9.38 154.51
  C 25.24 181.34 65.62 197.90 94.50 206.00
  Q 146.26 220.53 200.32 221.74
  Z
  M 161.11 81.04
  C 152.11 78.14 143.48 76.12 134.25 78.99
  C 116.43 84.52 116.23 102.90 132.77 110.77
  Q 151.61 119.73 157.19 122.78
  Q 161.41 125.09 162.66 129.87
  C 164.26 136.02 158.42 140.66 153.00 141.80
  C 144.05 143.69 129.72 140.84 126.02 131.51
  Q 124.54 127.79 123.53 124.42
  A 1.16 1.16 0.0 0 0 121.31 124.41
  Q 120.93 125.64 121.01 127.50
  Q 121.36 136.69 121.23 145.90
  Q 121.22 146.50 121.81 146.50
  L 122.98 146.50
  Q 123.56 146.50 123.68 145.93
  Q 124.51 141.78 128.43 142.81
  C 138.52 145.47 146.24 147.55 155.97 145.67
  C 162.99 144.31 170.22 139.81 172.79 133.05
  C 182.43 107.72 121.99 105.18 130.72 88.73
  C 135.16 80.37 146.36 80.36 154.03 83.72
  Q 164.04 88.12 165.83 98.98
  Q 166.12 100.70 167.70 100.52
  A 0.62 0.61 -3.1 0 0 168.25 99.91
  L 168.25 78.10
  A 0.96 0.96 0.0 0 0 166.49 77.58
  C 165.19 79.56 164.26 82.05 161.11 81.04
  Z
  M 302.8614 111.1861
  A 39.34 34.61 -1.2 0 0 262.8052 77.4076
  A 39.34 34.61 -1.2 0 0 224.1986 112.8339
  A 39.34 34.61 -1.2 0 0 264.2548 146.6124
  A 39.34 34.61 -1.2 0 0 302.8614 111.1861
  Z
  M 216.62 143.03
  C 211.44 142.97 206.42 142.71 205.96 136.28
  Q 205.14 124.86 206.08 87.76
  C 206.25 81.34 211.76 80.77 216.70 80.71
  Q 217.25 80.71 217.25 80.15
  L 217.25 79.74
  A 0.76 0.75 0.0 0 0 216.49 78.99
  L 184.25 79.02
  A 1.56 1.41 -78.1 0 0 182.90 80.00
  C 182.82 80.21 183.70 80.76 184.14 80.76
  C 187.42 80.73 194.23 81.84 194.24 86.25
  Q 194.28 110.52 194.23 134.80
  C 194.22 138.85 193.72 141.66 189.52 142.58
  C 188.53 142.80 182.42 142.90 183.05 144.36
  A 1.07 1.07 0.0 0 0 184.03 145.00
  L 216.69 145.00
  Q 217.38 145.00 217.34 144.31
  L 217.30 143.67
  Q 217.26 143.04 216.62 143.03
  Z
  M 311.77 79.84
  L 310.99 94.03
  A 0.86 0.85 14.7 0 0 311.48 94.86
  Q 312.23 95.21 312.93 94.45
  Q 313.22 94.13 313.29 93.71
  C 315.36 81.46 328.27 82.86 338.04 83.37
  A 0.54 0.54 0.0 0 1 338.56 83.91
  Q 338.49 110.30 338.26 136.68
  C 338.19 144.71 326.62 142.23 327.20 144.36
  A 0.86 0.85 82.7 0 0 328.01 144.99
  L 360.50 145.01
  Q 360.56 145.01 361.06 144.57
  Q 361.48 144.20 361.12 143.47
  A 0.86 0.86 0.0 0 0 360.25 143.00
  C 355.53 143.54 350.03 142.10 350.02 136.24
  Q 349.95 110.10 350.02 83.90
  Q 350.03 83.38 350.55 83.35
  C 359.96 82.82 373.31 81.63 375.79 93.64
  Q 376.16 95.46 377.62 94.46
  A 1.02 1.01 -19.6 0 0 378.05 93.56
  L 377.15 79.79
  A 0.84 0.84 0.0 0 0 376.31 79.00
  L 312.66 79.00
  A 0.89 0.89 0.0 0 0 311.77 79.84
  Z"
/>
<path fill="#1b99c4" d="
  M 259.23 40.98
  L 259.31 40.41
  Q 259.39 39.86 259.95 39.89
  C 268.29 40.29 276.37 40.53 284.63 42.08
  Q 301.30 45.21 317.91 48.67
  Q 322.19 49.57 327.15 50.96
  C 334.86 53.12 343.26 55.10 350.00 57.60
  C 373.61 66.35 400.84 80.13 409.47 104.94
  C 413.69 117.07 407.79 131.48 399.60 140.65
  C 397.32 143.20 394.24 147.58 390.90 148.58
  Q 389.08 149.13 387.94 150.07
  Q 377.53 158.63 365.91 163.14
  Q 359.65 165.56 355.60 167.95
  Q 355.16 168.20 354.97 168.66
  C 353.67 171.79 359.19 171.06 360.55 170.76
  C 363.89 170.02 389.30 164.68 390.12 163.61
  Q 390.42 163.21 390.92 163.16
  C 394.63 162.80 398.27 161.11 401.37 160.38
  Q 408.63 158.69 417.54 155.27
  C 432.43 149.55 447.56 143.63 459.69 134.86
  Q 472.83 125.35 482.38 111.95
  C 491.21 99.56 491.58 88.90 485.98 74.97
  Q 484.47 71.22 482.01 68.20
  Q 473.87 58.23 464.04 49.95
  C 459.36 46.01 453.36 42.97 447.93 39.68
  Q 441.20 35.61 435.27 33.01
  C 424.52 28.29 413.81 23.43 402.48 20.81
  C 395.43 19.18 388.59 16.52 381.55 15.07
  C 377.34 14.20 372.91 13.65 368.64 12.63
  Q 365.02 11.76 363.91 11.60
  C 350.47 9.73 335.66 7.16 323.57 5.85
  C 281.02 1.26 237.59 2.53 195.61 11.35
  C 189.53 12.62 182.91 12.55 177.24 14.99
  Q 175.05 15.93 171.49 15.96
  Q 169.12 15.98 161.88 18.16
  Q 161.43 18.30 161.20 18.71
  C 160.23 20.42 157.37 20.25 155.73 20.05
  Q 155.24 19.99 154.77 20.15
  C 151.81 21.16 148.92 21.46 146.07 22.78
  Q 141.37 24.97 136.25 25.97
  Q 132.76 26.65 130.34 29.21
  Q 130.00 29.57 129.52 29.68
  Q 123.35 31.05 117.74 33.92
  C 109.65 38.05 101.56 42.01 94.23 47.03
  Q 92.95 47.90 92.02 49.47
  A 1.20 1.17 -82.2 0 1 91.34 50.00
  Q 88.33 50.86 86.64 53.38
  Q 86.35 53.82 85.89 54.06
  C 85.07 54.48 82.30 56.00 83.23 57.28
  A 2.26 1.89 60.5 0 0 85.60 58.17
  L 92.42 55.66
  A 2.39 2.35 -51.6 0 1 93.55 55.52
  Q 94.90 55.68 95.70 54.63
  Q 95.94 54.30 96.35 54.24
  Q 98.62 53.90 103.54 52.46
  C 108.33 51.06 112.68 49.55 117.84 48.60
  Q 124.57 47.38 131.01 45.05
  Q 134.67 43.73 143.75 42.78
  Q 151.34 41.99 156.59 41.28
  Q 180.79 38.00 205.23 38.23
  C 208.96 38.27 212.58 38.88 216.25 39.46
  C 168.67 39.15 116.58 46.10 72.78 65.66
  A 0.33 0.33 0.0 0 1 72.39 65.15
  C 100.16 31.22 152.34 16.04 194.77 8.85
  Q 282.14 -5.97 368.00 10.00
  C 405.19 16.92 472.39 36.58 488.69 75.53
  C 500.74 104.30 475.46 128.29 453.33 141.11
  C 413.79 164.01 367.64 172.62 322.78 177.39
  A 0.21 0.20 -55.6 0 1 322.71 176.99
  C 350.09 169.06 382.04 158.14 400.82 134.84
  C 416.34 115.56 406.23 94.40 388.96 81.28
  C 371.14 67.76 349.75 59.15 328.47 53.33
  Q 294.46 44.03 259.23 40.98
  Z"
/>
<path fill="#00a2ea" d="
  M 259.23 40.98
  Q 237.82 39.20 216.25 39.46
  C 212.58 38.88 208.96 38.27 205.23 38.23
  Q 180.79 38.00 156.59 41.28
  Q 151.34 41.99 143.75 42.78
  Q 134.67 43.73 131.01 45.05
  Q 124.57 47.38 117.84 48.60
  C 112.68 49.55 108.33 51.06 103.54 52.46
  Q 98.62 53.90 96.35 54.24
  Q 95.94 54.30 95.70 54.63
  Q 94.90 55.68 93.55 55.52
  A 2.39 2.35 -51.6 0 0 92.42 55.66
  L 85.60 58.17
  A 2.26 1.89 60.5 0 1 83.23 57.28
  C 82.30 56.00 85.07 54.48 85.89 54.06
  Q 86.35 53.82 86.64 53.38
  Q 88.33 50.86 91.34 50.00
  A 1.20 1.17 -82.2 0 0 92.02 49.47
  Q 92.95 47.90 94.23 47.03
  C 101.56 42.01 109.65 38.05 117.74 33.92
  Q 123.35 31.05 129.52 29.68
  Q 130.00 29.57 130.34 29.21
  Q 132.76 26.65 136.25 25.97
  Q 141.37 24.97 146.07 22.78
  C 148.92 21.46 151.81 21.16 154.77 20.15
  Q 155.24 19.99 155.73 20.05
  C 157.37 20.25 160.23 20.42 161.20 18.71
  Q 161.43 18.30 161.88 18.16
  Q 169.12 15.98 171.49 15.96
  Q 175.05 15.93 177.24 14.99
  C 182.91 12.55 189.53 12.62 195.61 11.35
  C 237.59 2.53 281.02 1.26 323.57 5.85
  C 335.66 7.16 350.47 9.73 363.91 11.60
  Q 365.02 11.76 368.64 12.63
  C 372.91 13.65 377.34 14.20 381.55 15.07
  C 388.59 16.52 395.43 19.18 402.48 20.81
  C 413.81 23.43 424.52 28.29 435.27 33.01
  Q 441.20 35.61 447.93 39.68
  C 453.36 42.97 459.36 46.01 464.04 49.95
  Q 473.87 58.23 482.01 68.20
  Q 484.47 71.22 485.98 74.97
  C 491.58 88.90 491.21 99.56 482.38 111.95
  Q 472.83 125.35 459.69 134.86
  C 447.56 143.63 432.43 149.55 417.54 155.27
  Q 408.63 158.69 401.37 160.38
  C 398.27 161.11 394.63 162.80 390.92 163.16
  Q 390.42 163.21 390.12 163.61
  C 389.30 164.68 363.89 170.02 360.55 170.76
  C 359.19 171.06 353.67 171.79 354.97 168.66
  Q 355.16 168.20 355.60 167.95
  Q 359.65 165.56 365.91 163.14
  Q 377.53 158.63 387.94 150.07
  Q 389.08 149.13 390.90 148.58
  C 394.24 147.58 397.32 143.20 399.60 140.65
  C 407.79 131.48 413.69 117.07 409.47 104.94
  C 400.84 80.13 373.61 66.35 350.00 57.60
  C 343.26 55.10 334.86 53.12 327.15 50.96
  Q 322.19 49.57 317.91 48.67
  Q 301.30 45.21 284.63 42.08
  C 276.37 40.53 268.29 40.29 259.95 39.89
  Q 259.39 39.86 259.31 40.41
  L 259.23 40.98
  Z"
/>
<path fill="#1b99c4" d="
  M 245.78 183.62
  C 244.61 184.33 243.66 184.86 242.23 184.87
  C 229.65 184.96 220.69 183.34 204.97 180.96
  C 189.24 178.57 174.37 174.69 159.07 170.49
  C 140.36 165.34 124.47 158.07 109.23 147.75
  Q 100.48 141.82 95.69 136.15
  C 90.68 130.21 84.97 121.55 84.79 113.50
  C 84.66 107.30 84.62 102.75 86.99 97.06
  Q 92.88 82.91 105.57 74.35
  C 112.53 69.67 118.10 65.28 125.04 62.16
  Q 130.60 59.66 135.73 57.33
  A 1.82 1.82 0.0 0 0 134.54 53.90
  Q 133.43 54.18 132.30 53.90
  Q 131.81 53.77 131.34 53.97
  Q 129.54 54.75 127.52 54.74
  Q 127.08 54.74 126.72 54.99
  C 124.55 56.43 120.22 56.35 117.69 56.54
  A 1.85 1.84 -64.3 0 0 116.81 56.85
  C 113.59 59.07 110.48 58.79 107.14 60.15
  Q 103.71 61.55 100.02 61.64
  Q 97.07 61.71 95.19 62.30
  Q 86.79 64.94 78.34 67.43
  Q 77.86 67.57 77.61 68.02
  C 77.26 68.65 74.10 69.52 73.12 70.45
  Q 72.76 70.79 72.27 70.94
  Q 65.12 73.05 63.42 74.17
  C 57.70 77.94 50.18 80.76 45.58 83.38
  C 25.41 94.87 -3.67 118.07 8.19 145.44
  C 20.45 173.70 50.83 188.46 78.24 198.36
  C 80.58 199.20 82.97 199.37 85.40 200.47
  C 96.09 205.30 110.57 208.54 121.10 210.59
  C 124.36 211.22 128.00 212.74 132.31 212.15
  A 1.50 1.45 55.9 0 1 133.27 212.35
  Q 135.25 213.53 137.50 213.95
  C 147.50 215.82 160.49 216.69 167.59 217.56
  C 176.01 218.58 184.37 219.70 192.84 220.17
  Q 196.75 220.38 200.32 221.74
  Q 146.26 220.53 94.50 206.00
  C 65.62 197.90 25.24 181.34 9.38 154.51
  C -13.64 115.59 32.29 84.93 62.16 72.46
  Q 86.86 62.15 116.95 55.21
  Q 138.26 50.29 165.75 47.52
  Q 168.73 47.22 170.19 47.22
  Q 170.99 47.22 170.23 47.46
  Q 165.24 48.99 149.52 54.30
  C 128.84 61.29 96.57 77.02 88.47 99.28
  C 77.07 130.62 118.67 153.59 141.65 162.40
  C 174.89 175.15 210.34 181.34 245.78 183.62
  Z"
/>
<path fill="#00a2ea" d="
  M 245.78 183.62
  Q 287.55 186.44 329.26 181.81
  C 360.93 178.30 392.97 171.33 422.16 158.31
  A 0.29 0.29 0.0 0 1 422.51 158.76
  Q 414.75 168.90 404.29 176.42
  L 402.75 175.54
  Q 402.25 175.25 401.79 175.60
  C 395.61 180.25 389.07 184.54 381.88 187.45
  Q 379.55 188.39 376.79 189.77
  C 362.88 196.77 348.46 201.99 332.76 205.91
  Q 308.20 212.03 283.20 216.05
  C 281.59 216.31 279.95 216.26 278.33 216.25
  C 274.64 216.22 270.63 217.85 267.57 218.11
  Q 255.03 219.17 242.50 220.24
  Q 241.73 220.30 240.48 221.54
  Q 220.35 222.48 200.32 221.74
  Q 196.75 220.38 192.84 220.17
  C 184.37 219.70 176.01 218.58 167.59 217.56
  C 160.49 216.69 147.50 215.82 137.50 213.95
  Q 135.25 213.53 133.27 212.35
  A 1.50 1.45 55.9 0 0 132.31 212.15
  C 128.00 212.74 124.36 211.22 121.10 210.59
  C 110.57 208.54 96.09 205.30 85.40 200.47
  C 82.97 199.37 80.58 199.20 78.24 198.36
  C 50.83 188.46 20.45 173.70 8.19 145.44
  C -3.67 118.07 25.41 94.87 45.58 83.38
  C 50.18 80.76 57.70 77.94 63.42 74.17
  Q 65.12 73.05 72.27 70.94
  Q 72.76 70.79 73.12 70.45
  C 74.10 69.52 77.26 68.65 77.61 68.02
  Q 77.86 67.57 78.34 67.43
  Q 86.79 64.94 95.19 62.30
  Q 97.07 61.71 100.02 61.64
  Q 103.71 61.55 107.14 60.15
  C 110.48 58.79 113.59 59.07 116.81 56.85
  A 1.85 1.84 -64.3 0 1 117.69 56.54
  C 120.22 56.35 124.55 56.43 126.72 54.99
  Q 127.08 54.74 127.52 54.74
  Q 129.54 54.75 131.34 53.97
  Q 131.81 53.77 132.30 53.90
  Q 133.43 54.18 134.54 53.90
  A 1.82 1.82 0.0 0 1 135.73 57.33
  Q 130.60 59.66 125.04 62.16
  C 118.10 65.28 112.53 69.67 105.57 74.35
  Q 92.88 82.91 86.99 97.06
  C 84.62 102.75 84.66 107.30 84.79 113.50
  C 84.97 121.55 90.68 130.21 95.69 136.15
  Q 100.48 141.82 109.23 147.75
  C 124.47 158.07 140.36 165.34 159.07 170.49
  C 174.37 174.69 189.24 178.57 204.97 180.96
  C 220.69 183.34 229.65 184.96 242.23 184.87
  C 243.66 184.86 244.61 184.33 245.78 183.62
  Z"
/>
<path fill="#00a2ea" d="
  M 161.11 81.04
  C 164.26 82.05 165.19 79.56 166.49 77.58
  A 0.96 0.96 0.0 0 1 168.25 78.10
  L 168.25 99.91
  A 0.62 0.61 -3.1 0 1 167.70 100.52
  Q 166.12 100.70 165.83 98.98
  Q 164.04 88.12 154.03 83.72
  C 146.36 80.36 135.16 80.37 130.72 88.73
  C 121.99 105.18 182.43 107.72 172.79 133.05
  C 170.22 139.81 162.99 144.31 155.97 145.67
  C 146.24 147.55 138.52 145.47 128.43 142.81
  Q 124.51 141.78 123.68 145.93
  Q 123.56 146.50 122.98 146.50
  L 121.81 146.50
  Q 121.22 146.50 121.23 145.90
  Q 121.36 136.69 121.01 127.50
  Q 120.93 125.64 121.31 124.41
  A 1.16 1.16 0.0 0 1 123.53 124.42
  Q 124.54 127.79 126.02 131.51
  C 129.72 140.84 144.05 143.69 153.00 141.80
  C 158.42 140.66 164.26 136.02 162.66 129.87
  Q 161.41 125.09 157.19 122.78
  Q 151.61 119.73 132.77 110.77
  C 116.23 102.90 116.43 84.52 134.25 78.99
  C 143.48 76.12 152.11 78.14 161.11 81.04
  Z"
/>
<path fill="#00a2ea" d="
  M 302.8614 111.1861
  A 39.34 34.61 -1.2 0 1 264.2548 146.6124
  A 39.34 34.61 -1.2 0 1 224.1986 112.8339
  A 39.34 34.61 -1.2 0 1 262.8052 77.4076
  A 39.34 34.61 -1.2 0 1 302.8614 111.1861
  Z
  M 248.69 138.06
  C 258.46 145.11 272.24 144.26 280.85 136.22
  C 292.29 125.51 291.72 98.12 280.75 87.68
  C 267.40 74.98 244.25 81.31 239.65 99.42
  C 236.54 111.66 237.53 130.01 248.69 138.06
  Z"
/>
<path fill="#00a2ea" d="
  M 205.96 136.28
  C 206.42 142.71 211.44 142.97 216.62 143.03
  Q 217.26 143.04 217.30 143.67
  L 217.34 144.31
  Q 217.38 145.00 216.69 145.00
  L 184.03 145.00
  A 1.07 1.07 0.0 0 1 183.05 144.36
  C 182.42 142.90 188.53 142.80 189.52 142.58
  C 193.72 141.66 194.22 138.85 194.23 134.80
  Q 194.28 110.52 194.24 86.25
  C 194.23 81.84 187.42 80.73 184.14 80.76
  C 183.70 80.76 182.82 80.21 182.90 80.00
  A 1.56 1.41 -78.1 0 1 184.25 79.02
  L 216.49 78.99
  A 0.76 0.75 0.0 0 1 217.25 79.74
  L 217.25 80.15
  Q 217.25 80.71 216.70 80.71
  C 211.76 80.77 206.25 81.34 206.08 87.76
  Q 205.14 124.86 205.96 136.28
  Z"
/>
<path fill="#00a2ea" d="
  M 311.77 79.84
  A 0.89 0.89 0.0 0 1 312.66 79.00
  L 376.31 79.00
  A 0.84 0.84 0.0 0 1 377.15 79.79
  L 378.05 93.56
  A 1.02 1.01 -19.6 0 1 377.62 94.46
  Q 376.16 95.46 375.79 93.64
  C 373.31 81.63 359.96 82.82 350.55 83.35
  Q 350.03 83.38 350.02 83.90
  Q 349.95 110.10 350.02 136.24
  C 350.03 142.10 355.53 143.54 360.25 143.00
  A 0.86 0.86 0.0 0 1 361.12 143.47
  Q 361.48 144.20 361.06 144.57
  Q 360.56 145.01 360.50 145.01
  L 328.01 144.99
  A 0.86 0.85 82.7 0 1 327.20 144.36
  C 326.62 142.23 338.19 144.71 338.26 136.68
  Q 338.49 110.30 338.56 83.91
  A 0.54 0.54 0.0 0 0 338.04 83.37
  C 328.27 82.86 315.36 81.46 313.29 93.71
  Q 313.22 94.13 312.93 94.45
  Q 312.23 95.21 311.48 94.86
  A 0.86 0.85 14.7 0 1 310.99 94.03
  L 311.77 79.84
  Z"
/>
<path fill="#ffffff" d="
  M 248.69 138.06
  C 237.53 130.01 236.54 111.66 239.65 99.42
  C 244.25 81.31 267.40 74.98 280.75 87.68
  C 291.72 98.12 292.29 125.51 280.85 136.22
  C 272.24 144.26 258.46 145.11 248.69 138.06
  Z"
/>
<path fill="#1b99c4" d="
  M 404.29 176.42
  C 383.61 191.54 358.37 201.20 332.96 207.86
  Q 287.53 219.75 240.48 221.54
  Q 241.73 220.30 242.50 220.24
  Q 255.03 219.17 267.57 218.11
  C 270.63 217.85 274.64 216.22 278.33 216.25
  C 279.95 216.26 281.59 216.31 283.20 216.05
  Q 308.20 212.03 332.76 205.91
  C 348.46 201.99 362.88 196.77 376.79 189.77
  Q 379.55 188.39 381.88 187.45
  C 389.07 184.54 395.61 180.25 401.79 175.60
  Q 402.25 175.25 402.75 175.54
  L 404.29 176.42
  Z"
/>
</svg>
